<mxfile host="app.diagrams.net" modified="2023-04-07T19:34:40.345Z" agent="Mozilla/5.0 (Macintosh; Intel Mac OS X 10_15_7) AppleWebKit/537.36 (KHTML, like Gecko) Chrome/111.0.0.0 Safari/537.36" etag="1pgL9dak7R_SUwahLD2a" version="21.1.5" type="device">
  <diagram name="Page-1" id="ewuzjmNUZ0Q40SlkVV-e">
    <mxGraphModel dx="1965" dy="640" grid="1" gridSize="10" guides="1" tooltips="1" connect="1" arrows="1" fold="1" page="1" pageScale="1" pageWidth="850" pageHeight="1100" math="0" shadow="0">
      <root>
        <mxCell id="0" />
        <mxCell id="1" parent="0" />
        <mxCell id="Zsn_RkaM_dlEEFuav1fD-1" style="edgeStyle=orthogonalEdgeStyle;rounded=0;orthogonalLoop=1;jettySize=auto;html=1;exitX=0.5;exitY=1;exitDx=0;exitDy=0;startArrow=classic;startFill=1;endArrow=none;endFill=0;" parent="1" source="Zsn_RkaM_dlEEFuav1fD-4" edge="1">
          <mxGeometry relative="1" as="geometry">
            <mxPoint x="440" y="312" as="targetPoint" />
          </mxGeometry>
        </mxCell>
        <mxCell id="Zsn_RkaM_dlEEFuav1fD-2" value="&lt;font face=&quot;Times New Roman&quot; style=&quot;font-size: 16px;&quot;&gt;&lt;b&gt;X&lt;sub&gt;5&lt;/sub&gt;&lt;/b&gt;&lt;/font&gt;" style="ellipse;whiteSpace=wrap;html=1;aspect=fixed;direction=east;" parent="1" vertex="1">
          <mxGeometry x="540" y="202" width="40" height="40" as="geometry" />
        </mxCell>
        <mxCell id="Zsn_RkaM_dlEEFuav1fD-3" value="" style="endArrow=classic;html=1;rounded=0;exitX=0.5;exitY=1;exitDx=0;exitDy=0;entryX=0.5;entryY=0;entryDx=0;entryDy=0;" parent="1" source="Zsn_RkaM_dlEEFuav1fD-2" target="Zsn_RkaM_dlEEFuav1fD-6" edge="1">
          <mxGeometry width="50" height="50" relative="1" as="geometry">
            <mxPoint x="590" y="412" as="sourcePoint" />
            <mxPoint x="640" y="362" as="targetPoint" />
          </mxGeometry>
        </mxCell>
        <mxCell id="Zsn_RkaM_dlEEFuav1fD-4" value="&lt;font face=&quot;Times New Roman&quot; style=&quot;font-size: 16px;&quot;&gt;&lt;b&gt;X&lt;sub style=&quot;&quot;&gt;1&lt;/sub&gt;&lt;/b&gt;&lt;/font&gt;" style="ellipse;whiteSpace=wrap;html=1;aspect=fixed;direction=east;" parent="1" vertex="1">
          <mxGeometry x="420" y="202" width="40" height="40" as="geometry" />
        </mxCell>
        <mxCell id="Zsn_RkaM_dlEEFuav1fD-5" value="&lt;font face=&quot;Times New Roman&quot; style=&quot;font-size: 16px;&quot;&gt;&lt;b&gt;X&lt;sub&gt;2&lt;/sub&gt;&lt;/b&gt;&lt;/font&gt;" style="ellipse;whiteSpace=wrap;html=1;aspect=fixed;direction=east;" parent="1" vertex="1">
          <mxGeometry x="420" y="312" width="40" height="40" as="geometry" />
        </mxCell>
        <mxCell id="Zsn_RkaM_dlEEFuav1fD-6" value="&lt;font face=&quot;Times New Roman&quot; style=&quot;font-size: 16px;&quot;&gt;&lt;b&gt;X&lt;sub&gt;4&lt;/sub&gt;&lt;/b&gt;&lt;/font&gt;" style="ellipse;whiteSpace=wrap;html=1;aspect=fixed;direction=east;" parent="1" vertex="1">
          <mxGeometry x="540" y="312" width="40" height="40" as="geometry" />
        </mxCell>
        <mxCell id="Zsn_RkaM_dlEEFuav1fD-7" value="&lt;font face=&quot;Times New Roman&quot; style=&quot;font-size: 16px;&quot;&gt;&lt;b&gt;X&lt;sub&gt;3&lt;/sub&gt;&lt;/b&gt;&lt;/font&gt;" style="ellipse;whiteSpace=wrap;html=1;aspect=fixed;direction=east;" parent="1" vertex="1">
          <mxGeometry x="480" y="392" width="40" height="40" as="geometry" />
        </mxCell>
        <mxCell id="Zsn_RkaM_dlEEFuav1fD-8" value="" style="endArrow=none;html=1;rounded=0;exitX=1;exitY=0;exitDx=0;exitDy=0;entryX=0;entryY=1;entryDx=0;entryDy=0;endFill=0;" parent="1" source="Zsn_RkaM_dlEEFuav1fD-43" target="Zsn_RkaM_dlEEFuav1fD-6" edge="1">
          <mxGeometry width="50" height="50" relative="1" as="geometry">
            <mxPoint x="580" y="412" as="sourcePoint" />
            <mxPoint x="630" y="362" as="targetPoint" />
          </mxGeometry>
        </mxCell>
        <mxCell id="Zsn_RkaM_dlEEFuav1fD-9" value="" style="endArrow=none;html=1;rounded=0;endFill=0;entryX=0;entryY=0;entryDx=0;entryDy=0;exitX=1;exitY=1;exitDx=0;exitDy=0;" parent="1" source="Zsn_RkaM_dlEEFuav1fD-5" target="Zsn_RkaM_dlEEFuav1fD-7" edge="1">
          <mxGeometry width="50" height="50" relative="1" as="geometry">
            <mxPoint x="450" y="342" as="sourcePoint" />
            <mxPoint x="630" y="362" as="targetPoint" />
          </mxGeometry>
        </mxCell>
        <mxCell id="Zsn_RkaM_dlEEFuav1fD-10" value="" style="endArrow=none;html=1;rounded=0;exitX=0;exitY=0.5;exitDx=0;exitDy=0;entryX=1;entryY=0.5;entryDx=0;entryDy=0;endFill=0;startArrow=classic;startFill=1;" parent="1" source="Zsn_RkaM_dlEEFuav1fD-6" target="Zsn_RkaM_dlEEFuav1fD-5" edge="1">
          <mxGeometry width="50" height="50" relative="1" as="geometry">
            <mxPoint x="590" y="412" as="sourcePoint" />
            <mxPoint x="640" y="362" as="targetPoint" />
          </mxGeometry>
        </mxCell>
        <mxCell id="Zsn_RkaM_dlEEFuav1fD-11" value="" style="endArrow=classic;html=1;rounded=0;exitX=0;exitY=0.5;exitDx=0;exitDy=0;entryX=1;entryY=0.5;entryDx=0;entryDy=0;" parent="1" source="Zsn_RkaM_dlEEFuav1fD-2" target="Zsn_RkaM_dlEEFuav1fD-4" edge="1">
          <mxGeometry width="50" height="50" relative="1" as="geometry">
            <mxPoint x="570" y="252" as="sourcePoint" />
            <mxPoint x="570" y="322" as="targetPoint" />
          </mxGeometry>
        </mxCell>
        <mxCell id="Zsn_RkaM_dlEEFuav1fD-12" value="" style="endArrow=none;startArrow=none;html=1;curved=1;entryX=0;entryY=1;entryDx=0;entryDy=0;exitX=0;exitY=0.5;exitDx=0;exitDy=0;startFill=0;endFill=0;" parent="1" source="Zsn_RkaM_dlEEFuav1fD-7" target="Zsn_RkaM_dlEEFuav1fD-4" edge="1">
          <mxGeometry width="50" height="50" relative="1" as="geometry">
            <mxPoint x="540" y="522" as="sourcePoint" />
            <mxPoint x="590" y="472" as="targetPoint" />
            <Array as="points">
              <mxPoint x="360" y="362" />
            </Array>
          </mxGeometry>
        </mxCell>
        <mxCell id="Zsn_RkaM_dlEEFuav1fD-41" value="&lt;b&gt;&lt;font face=&quot;Times New Roman&quot; style=&quot;font-size: 19px;&quot;&gt;(c)&lt;/font&gt;&lt;/b&gt;" style="text;html=1;strokeColor=none;fillColor=none;align=center;verticalAlign=middle;whiteSpace=wrap;rounded=0;fontSize=17;" parent="1" vertex="1">
          <mxGeometry x="410" y="160" width="60" height="30" as="geometry" />
        </mxCell>
        <mxCell id="Zsn_RkaM_dlEEFuav1fD-42" value="&lt;b&gt;&lt;font face=&quot;Times New Roman&quot; style=&quot;font-size: 19px;&quot;&gt;(d)&lt;/font&gt;&lt;/b&gt;" style="text;html=1;strokeColor=none;fillColor=none;align=center;verticalAlign=middle;whiteSpace=wrap;rounded=0;fontSize=17;" parent="1" vertex="1">
          <mxGeometry x="640.5" y="160" width="60" height="30" as="geometry" />
        </mxCell>
        <mxCell id="Zsn_RkaM_dlEEFuav1fD-45" value="" style="endArrow=none;html=1;rounded=0;exitX=1;exitY=0;exitDx=0;exitDy=0;entryX=0;entryY=1;entryDx=0;entryDy=0;endFill=0;" parent="1" source="Zsn_RkaM_dlEEFuav1fD-7" target="Zsn_RkaM_dlEEFuav1fD-43" edge="1">
          <mxGeometry width="50" height="50" relative="1" as="geometry">
            <mxPoint x="514" y="398" as="sourcePoint" />
            <mxPoint x="546" y="346" as="targetPoint" />
          </mxGeometry>
        </mxCell>
        <mxCell id="Zsn_RkaM_dlEEFuav1fD-43" value="" style="ellipse;whiteSpace=wrap;html=1;aspect=fixed;" parent="1" vertex="1">
          <mxGeometry x="513" y="392" width="7" height="7" as="geometry" />
        </mxCell>
        <mxCell id="Zsn_RkaM_dlEEFuav1fD-46" value="" style="ellipse;whiteSpace=wrap;html=1;aspect=fixed;" parent="1" vertex="1">
          <mxGeometry x="540" y="345" width="7" height="7" as="geometry" />
        </mxCell>
        <mxCell id="Zsn_RkaM_dlEEFuav1fD-47" value="" style="ellipse;whiteSpace=wrap;html=1;aspect=fixed;" parent="1" vertex="1">
          <mxGeometry x="481" y="391" width="7" height="7" as="geometry" />
        </mxCell>
        <mxCell id="Zsn_RkaM_dlEEFuav1fD-48" value="" style="ellipse;whiteSpace=wrap;html=1;aspect=fixed;" parent="1" vertex="1">
          <mxGeometry x="452" y="346" width="7" height="7" as="geometry" />
        </mxCell>
        <mxCell id="Zsn_RkaM_dlEEFuav1fD-50" value="" style="ellipse;whiteSpace=wrap;html=1;aspect=fixed;" parent="1" vertex="1">
          <mxGeometry x="473" y="406" width="7" height="7" as="geometry" />
        </mxCell>
        <mxCell id="Zsn_RkaM_dlEEFuav1fD-51" value="" style="ellipse;whiteSpace=wrap;html=1;aspect=fixed;" parent="1" vertex="1">
          <mxGeometry x="420" y="235" width="7" height="7" as="geometry" />
        </mxCell>
        <mxCell id="Zsn_RkaM_dlEEFuav1fD-52" style="edgeStyle=orthogonalEdgeStyle;rounded=0;orthogonalLoop=1;jettySize=auto;html=1;exitX=0.5;exitY=1;exitDx=0;exitDy=0;startArrow=none;startFill=0;endArrow=none;endFill=0;" parent="1" source="Zsn_RkaM_dlEEFuav1fD-55" edge="1">
          <mxGeometry relative="1" as="geometry">
            <mxPoint x="700" y="312" as="targetPoint" />
          </mxGeometry>
        </mxCell>
        <mxCell id="Zsn_RkaM_dlEEFuav1fD-53" value="&lt;font face=&quot;Times New Roman&quot; style=&quot;font-size: 16px;&quot;&gt;&lt;b&gt;X&lt;sub&gt;5&lt;/sub&gt;&lt;/b&gt;&lt;/font&gt;" style="ellipse;whiteSpace=wrap;html=1;aspect=fixed;direction=east;" parent="1" vertex="1">
          <mxGeometry x="800" y="202" width="40" height="40" as="geometry" />
        </mxCell>
        <mxCell id="Zsn_RkaM_dlEEFuav1fD-54" value="" style="endArrow=none;html=1;rounded=0;exitX=0.5;exitY=1;exitDx=0;exitDy=0;entryX=0.5;entryY=0;entryDx=0;entryDy=0;startArrow=none;startFill=0;endFill=0;" parent="1" source="Zsn_RkaM_dlEEFuav1fD-53" target="Zsn_RkaM_dlEEFuav1fD-57" edge="1">
          <mxGeometry width="50" height="50" relative="1" as="geometry">
            <mxPoint x="850" y="412" as="sourcePoint" />
            <mxPoint x="900" y="362" as="targetPoint" />
          </mxGeometry>
        </mxCell>
        <mxCell id="Zsn_RkaM_dlEEFuav1fD-55" value="&lt;font face=&quot;Times New Roman&quot; style=&quot;font-size: 16px;&quot;&gt;&lt;b&gt;X&lt;sub&gt;1&lt;/sub&gt;&lt;/b&gt;&lt;/font&gt;" style="ellipse;whiteSpace=wrap;html=1;aspect=fixed;direction=east;" parent="1" vertex="1">
          <mxGeometry x="680" y="202" width="40" height="40" as="geometry" />
        </mxCell>
        <mxCell id="Zsn_RkaM_dlEEFuav1fD-56" value="&lt;font face=&quot;Times New Roman&quot; style=&quot;font-size: 16px;&quot;&gt;&lt;b&gt;X&lt;sub&gt;2&lt;/sub&gt;&lt;/b&gt;&lt;/font&gt;" style="ellipse;whiteSpace=wrap;html=1;aspect=fixed;direction=east;" parent="1" vertex="1">
          <mxGeometry x="680" y="312" width="40" height="40" as="geometry" />
        </mxCell>
        <mxCell id="Zsn_RkaM_dlEEFuav1fD-57" value="&lt;font face=&quot;Times New Roman&quot; style=&quot;font-size: 16px;&quot;&gt;&lt;b&gt;X&lt;sub&gt;4&lt;/sub&gt;&lt;/b&gt;&lt;/font&gt;" style="ellipse;whiteSpace=wrap;html=1;aspect=fixed;direction=east;" parent="1" vertex="1">
          <mxGeometry x="800" y="312" width="40" height="40" as="geometry" />
        </mxCell>
        <mxCell id="Zsn_RkaM_dlEEFuav1fD-58" value="&lt;font face=&quot;Times New Roman&quot; style=&quot;font-size: 16px;&quot;&gt;&lt;b&gt;X&lt;sub&gt;3&lt;/sub&gt;&lt;/b&gt;&lt;/font&gt;" style="ellipse;whiteSpace=wrap;html=1;aspect=fixed;direction=east;" parent="1" vertex="1">
          <mxGeometry x="740" y="392" width="40" height="40" as="geometry" />
        </mxCell>
        <mxCell id="Zsn_RkaM_dlEEFuav1fD-59" value="" style="endArrow=none;html=1;rounded=0;exitX=1;exitY=0;exitDx=0;exitDy=0;entryX=0;entryY=1;entryDx=0;entryDy=0;endFill=0;" parent="1" source="Zsn_RkaM_dlEEFuav1fD-65" target="Zsn_RkaM_dlEEFuav1fD-57" edge="1">
          <mxGeometry width="50" height="50" relative="1" as="geometry">
            <mxPoint x="840" y="412" as="sourcePoint" />
            <mxPoint x="890" y="362" as="targetPoint" />
          </mxGeometry>
        </mxCell>
        <mxCell id="Zsn_RkaM_dlEEFuav1fD-60" value="" style="endArrow=none;html=1;rounded=0;endFill=0;entryX=0;entryY=0;entryDx=0;entryDy=0;exitX=1;exitY=1;exitDx=0;exitDy=0;" parent="1" source="Zsn_RkaM_dlEEFuav1fD-56" target="Zsn_RkaM_dlEEFuav1fD-58" edge="1">
          <mxGeometry width="50" height="50" relative="1" as="geometry">
            <mxPoint x="710" y="342" as="sourcePoint" />
            <mxPoint x="890" y="362" as="targetPoint" />
          </mxGeometry>
        </mxCell>
        <mxCell id="Zsn_RkaM_dlEEFuav1fD-61" value="" style="endArrow=none;html=1;rounded=0;exitX=0;exitY=0.5;exitDx=0;exitDy=0;entryX=1;entryY=0.5;entryDx=0;entryDy=0;endFill=0;startArrow=none;startFill=0;" parent="1" source="Zsn_RkaM_dlEEFuav1fD-57" target="Zsn_RkaM_dlEEFuav1fD-56" edge="1">
          <mxGeometry width="50" height="50" relative="1" as="geometry">
            <mxPoint x="850" y="412" as="sourcePoint" />
            <mxPoint x="900" y="362" as="targetPoint" />
          </mxGeometry>
        </mxCell>
        <mxCell id="Zsn_RkaM_dlEEFuav1fD-62" value="" style="endArrow=none;html=1;rounded=0;exitX=0;exitY=0.5;exitDx=0;exitDy=0;entryX=1;entryY=0.5;entryDx=0;entryDy=0;startArrow=none;startFill=0;endFill=0;" parent="1" source="Zsn_RkaM_dlEEFuav1fD-80" target="Zsn_RkaM_dlEEFuav1fD-55" edge="1">
          <mxGeometry width="50" height="50" relative="1" as="geometry">
            <mxPoint x="830" y="252" as="sourcePoint" />
            <mxPoint x="830" y="322" as="targetPoint" />
          </mxGeometry>
        </mxCell>
        <mxCell id="Zsn_RkaM_dlEEFuav1fD-63" value="" style="endArrow=none;startArrow=none;html=1;curved=1;entryX=0;entryY=1;entryDx=0;entryDy=0;exitX=0;exitY=0.5;exitDx=0;exitDy=0;startFill=0;endFill=0;" parent="1" source="Zsn_RkaM_dlEEFuav1fD-58" target="Zsn_RkaM_dlEEFuav1fD-55" edge="1">
          <mxGeometry width="50" height="50" relative="1" as="geometry">
            <mxPoint x="800" y="522" as="sourcePoint" />
            <mxPoint x="850" y="472" as="targetPoint" />
            <Array as="points">
              <mxPoint x="620" y="362" />
            </Array>
          </mxGeometry>
        </mxCell>
        <mxCell id="Zsn_RkaM_dlEEFuav1fD-64" value="" style="endArrow=none;html=1;rounded=0;exitX=1;exitY=0;exitDx=0;exitDy=0;entryX=0;entryY=1;entryDx=0;entryDy=0;endFill=0;" parent="1" source="Zsn_RkaM_dlEEFuav1fD-58" target="Zsn_RkaM_dlEEFuav1fD-65" edge="1">
          <mxGeometry width="50" height="50" relative="1" as="geometry">
            <mxPoint x="774" y="398" as="sourcePoint" />
            <mxPoint x="806" y="346" as="targetPoint" />
          </mxGeometry>
        </mxCell>
        <mxCell id="Zsn_RkaM_dlEEFuav1fD-65" value="" style="ellipse;whiteSpace=wrap;html=1;aspect=fixed;" parent="1" vertex="1">
          <mxGeometry x="773" y="392" width="7" height="7" as="geometry" />
        </mxCell>
        <mxCell id="Zsn_RkaM_dlEEFuav1fD-66" value="" style="ellipse;whiteSpace=wrap;html=1;aspect=fixed;" parent="1" vertex="1">
          <mxGeometry x="800" y="345" width="7" height="7" as="geometry" />
        </mxCell>
        <mxCell id="Zsn_RkaM_dlEEFuav1fD-67" value="" style="ellipse;whiteSpace=wrap;html=1;aspect=fixed;" parent="1" vertex="1">
          <mxGeometry x="741" y="391" width="7" height="7" as="geometry" />
        </mxCell>
        <mxCell id="Zsn_RkaM_dlEEFuav1fD-68" value="" style="ellipse;whiteSpace=wrap;html=1;aspect=fixed;" parent="1" vertex="1">
          <mxGeometry x="713" y="346" width="7" height="7" as="geometry" />
        </mxCell>
        <mxCell id="Zsn_RkaM_dlEEFuav1fD-69" value="" style="ellipse;whiteSpace=wrap;html=1;aspect=fixed;" parent="1" vertex="1">
          <mxGeometry x="733" y="406" width="7" height="7" as="geometry" />
        </mxCell>
        <mxCell id="Zsn_RkaM_dlEEFuav1fD-70" value="" style="ellipse;whiteSpace=wrap;html=1;aspect=fixed;" parent="1" vertex="1">
          <mxGeometry x="680" y="235" width="7" height="7" as="geometry" />
        </mxCell>
        <mxCell id="Zsn_RkaM_dlEEFuav1fD-71" value="" style="endArrow=none;html=1;rounded=0;exitX=0;exitY=1;exitDx=0;exitDy=0;entryX=1;entryY=0;entryDx=0;entryDy=0;startArrow=none;startFill=0;endFill=0;" parent="1" source="Zsn_RkaM_dlEEFuav1fD-76" target="Zsn_RkaM_dlEEFuav1fD-56" edge="1">
          <mxGeometry width="50" height="50" relative="1" as="geometry">
            <mxPoint x="830" y="252" as="sourcePoint" />
            <mxPoint x="830" y="322" as="targetPoint" />
          </mxGeometry>
        </mxCell>
        <mxCell id="Zsn_RkaM_dlEEFuav1fD-72" value="" style="ellipse;whiteSpace=wrap;html=1;aspect=fixed;" parent="1" vertex="1">
          <mxGeometry x="697" y="242" width="7" height="7" as="geometry" />
        </mxCell>
        <mxCell id="Zsn_RkaM_dlEEFuav1fD-73" value="" style="ellipse;whiteSpace=wrap;html=1;aspect=fixed;" parent="1" vertex="1">
          <mxGeometry x="697" y="305" width="7" height="7" as="geometry" />
        </mxCell>
        <mxCell id="Zsn_RkaM_dlEEFuav1fD-74" value="" style="ellipse;whiteSpace=wrap;html=1;aspect=fixed;" parent="1" vertex="1">
          <mxGeometry x="713" y="311" width="7" height="7" as="geometry" />
        </mxCell>
        <mxCell id="Zsn_RkaM_dlEEFuav1fD-75" value="" style="ellipse;whiteSpace=wrap;html=1;aspect=fixed;" parent="1" vertex="1">
          <mxGeometry x="720" y="219" width="7" height="7" as="geometry" />
        </mxCell>
        <mxCell id="Zsn_RkaM_dlEEFuav1fD-77" value="" style="endArrow=none;html=1;rounded=0;exitX=0;exitY=1;exitDx=0;exitDy=0;entryX=1;entryY=0;entryDx=0;entryDy=0;startArrow=none;startFill=0;endFill=0;" parent="1" source="Zsn_RkaM_dlEEFuav1fD-53" target="Zsn_RkaM_dlEEFuav1fD-76" edge="1">
          <mxGeometry width="50" height="50" relative="1" as="geometry">
            <mxPoint x="806" y="236" as="sourcePoint" />
            <mxPoint x="714" y="318" as="targetPoint" />
          </mxGeometry>
        </mxCell>
        <mxCell id="Zsn_RkaM_dlEEFuav1fD-76" value="" style="ellipse;whiteSpace=wrap;html=1;aspect=fixed;" parent="1" vertex="1">
          <mxGeometry x="799" y="234" width="7" height="7" as="geometry" />
        </mxCell>
        <mxCell id="Zsn_RkaM_dlEEFuav1fD-78" value="" style="ellipse;whiteSpace=wrap;html=1;aspect=fixed;" parent="1" vertex="1">
          <mxGeometry x="817" y="242" width="7" height="7" as="geometry" />
        </mxCell>
        <mxCell id="Zsn_RkaM_dlEEFuav1fD-79" value="" style="ellipse;whiteSpace=wrap;html=1;aspect=fixed;" parent="1" vertex="1">
          <mxGeometry x="817" y="305" width="7" height="7" as="geometry" />
        </mxCell>
        <mxCell id="Zsn_RkaM_dlEEFuav1fD-81" value="" style="endArrow=none;html=1;rounded=0;exitX=0;exitY=0.5;exitDx=0;exitDy=0;entryX=1;entryY=0.5;entryDx=0;entryDy=0;startArrow=none;startFill=0;endFill=0;" parent="1" source="Zsn_RkaM_dlEEFuav1fD-53" target="Zsn_RkaM_dlEEFuav1fD-80" edge="1">
          <mxGeometry width="50" height="50" relative="1" as="geometry">
            <mxPoint x="800" y="222" as="sourcePoint" />
            <mxPoint x="720" y="222" as="targetPoint" />
          </mxGeometry>
        </mxCell>
        <mxCell id="Zsn_RkaM_dlEEFuav1fD-80" value="" style="ellipse;whiteSpace=wrap;html=1;aspect=fixed;" parent="1" vertex="1">
          <mxGeometry x="792" y="219" width="7" height="7" as="geometry" />
        </mxCell>
        <mxCell id="QHO13-d4Z4Mb73UlOaV2-1" value="" style="ellipse;whiteSpace=wrap;html=1;aspect=fixed;" parent="1" vertex="1">
          <mxGeometry x="720" y="328" width="7" height="7" as="geometry" />
        </mxCell>
        <mxCell id="QHO13-d4Z4Mb73UlOaV2-2" value="" style="ellipse;whiteSpace=wrap;html=1;aspect=fixed;" parent="1" vertex="1">
          <mxGeometry x="793" y="328" width="7" height="7" as="geometry" />
        </mxCell>
        <mxCell id="oguf93Jlcs2KrrrcKsTc-1" style="edgeStyle=orthogonalEdgeStyle;rounded=0;orthogonalLoop=1;jettySize=auto;html=1;exitX=0.5;exitY=1;exitDx=0;exitDy=0;startArrow=none;startFill=0;endArrow=classic;endFill=1;" parent="1" source="oguf93Jlcs2KrrrcKsTc-4" edge="1">
          <mxGeometry relative="1" as="geometry">
            <mxPoint x="180" y="312" as="targetPoint" />
          </mxGeometry>
        </mxCell>
        <mxCell id="oguf93Jlcs2KrrrcKsTc-2" value="&lt;font face=&quot;Times New Roman&quot; style=&quot;font-size: 16px;&quot;&gt;&lt;b&gt;X&lt;sub&gt;5&lt;/sub&gt;&lt;/b&gt;&lt;/font&gt;" style="ellipse;whiteSpace=wrap;html=1;aspect=fixed;direction=east;" parent="1" vertex="1">
          <mxGeometry x="280" y="202" width="40" height="40" as="geometry" />
        </mxCell>
        <mxCell id="oguf93Jlcs2KrrrcKsTc-3" value="" style="endArrow=classic;html=1;rounded=0;exitX=0.5;exitY=1;exitDx=0;exitDy=0;entryX=0.5;entryY=0;entryDx=0;entryDy=0;" parent="1" source="oguf93Jlcs2KrrrcKsTc-2" target="oguf93Jlcs2KrrrcKsTc-6" edge="1">
          <mxGeometry width="50" height="50" relative="1" as="geometry">
            <mxPoint x="330" y="412" as="sourcePoint" />
            <mxPoint x="380" y="362" as="targetPoint" />
          </mxGeometry>
        </mxCell>
        <mxCell id="oguf93Jlcs2KrrrcKsTc-4" value="&lt;font face=&quot;Times New Roman&quot; style=&quot;font-size: 16px;&quot;&gt;&lt;b&gt;X&lt;sub style=&quot;&quot;&gt;1&lt;/sub&gt;&lt;/b&gt;&lt;/font&gt;" style="ellipse;whiteSpace=wrap;html=1;aspect=fixed;direction=east;" parent="1" vertex="1">
          <mxGeometry x="160" y="202" width="40" height="40" as="geometry" />
        </mxCell>
        <mxCell id="oguf93Jlcs2KrrrcKsTc-5" value="&lt;font face=&quot;Times New Roman&quot; style=&quot;font-size: 16px;&quot;&gt;&lt;b&gt;X&lt;sub&gt;2&lt;/sub&gt;&lt;/b&gt;&lt;/font&gt;" style="ellipse;whiteSpace=wrap;html=1;aspect=fixed;direction=east;" parent="1" vertex="1">
          <mxGeometry x="160" y="312" width="40" height="40" as="geometry" />
        </mxCell>
        <mxCell id="oguf93Jlcs2KrrrcKsTc-6" value="&lt;font face=&quot;Times New Roman&quot; style=&quot;font-size: 16px;&quot;&gt;&lt;b&gt;X&lt;sub&gt;4&lt;/sub&gt;&lt;/b&gt;&lt;/font&gt;" style="ellipse;whiteSpace=wrap;html=1;aspect=fixed;direction=east;" parent="1" vertex="1">
          <mxGeometry x="280" y="312" width="40" height="40" as="geometry" />
        </mxCell>
        <mxCell id="oguf93Jlcs2KrrrcKsTc-7" value="&lt;font face=&quot;Times New Roman&quot; style=&quot;font-size: 16px;&quot;&gt;&lt;b&gt;X&lt;sub&gt;3&lt;/sub&gt;&lt;/b&gt;&lt;/font&gt;" style="ellipse;whiteSpace=wrap;html=1;aspect=fixed;direction=east;" parent="1" vertex="1">
          <mxGeometry x="220" y="392" width="40" height="40" as="geometry" />
        </mxCell>
        <mxCell id="oguf93Jlcs2KrrrcKsTc-8" value="" style="endArrow=none;html=1;rounded=0;exitX=1;exitY=0;exitDx=0;exitDy=0;entryX=0;entryY=1;entryDx=0;entryDy=0;endFill=0;" parent="1" source="oguf93Jlcs2KrrrcKsTc-7" target="oguf93Jlcs2KrrrcKsTc-6" edge="1">
          <mxGeometry width="50" height="50" relative="1" as="geometry">
            <mxPoint x="258.9748737341529" y="393.0251262658471" as="sourcePoint" />
            <mxPoint x="370" y="362" as="targetPoint" />
          </mxGeometry>
        </mxCell>
        <mxCell id="oguf93Jlcs2KrrrcKsTc-9" value="" style="endArrow=none;html=1;rounded=0;endFill=0;entryX=0;entryY=0;entryDx=0;entryDy=0;exitX=1;exitY=1;exitDx=0;exitDy=0;" parent="1" source="oguf93Jlcs2KrrrcKsTc-5" target="oguf93Jlcs2KrrrcKsTc-7" edge="1">
          <mxGeometry width="50" height="50" relative="1" as="geometry">
            <mxPoint x="190" y="342" as="sourcePoint" />
            <mxPoint x="370" y="362" as="targetPoint" />
          </mxGeometry>
        </mxCell>
        <mxCell id="oguf93Jlcs2KrrrcKsTc-10" value="" style="endArrow=none;html=1;rounded=0;exitX=0;exitY=0.5;exitDx=0;exitDy=0;entryX=1;entryY=0.5;entryDx=0;entryDy=0;endFill=0;startArrow=none;startFill=0;" parent="1" source="oguf93Jlcs2KrrrcKsTc-6" target="oguf93Jlcs2KrrrcKsTc-5" edge="1">
          <mxGeometry width="50" height="50" relative="1" as="geometry">
            <mxPoint x="330" y="412" as="sourcePoint" />
            <mxPoint x="380" y="362" as="targetPoint" />
          </mxGeometry>
        </mxCell>
        <mxCell id="oguf93Jlcs2KrrrcKsTc-11" value="" style="endArrow=none;html=1;rounded=0;exitX=0;exitY=0.5;exitDx=0;exitDy=0;entryX=1;entryY=0.5;entryDx=0;entryDy=0;endFill=0;startArrow=classic;startFill=1;" parent="1" source="oguf93Jlcs2KrrrcKsTc-2" target="oguf93Jlcs2KrrrcKsTc-4" edge="1">
          <mxGeometry width="50" height="50" relative="1" as="geometry">
            <mxPoint x="310" y="252" as="sourcePoint" />
            <mxPoint x="310" y="322" as="targetPoint" />
          </mxGeometry>
        </mxCell>
        <mxCell id="oguf93Jlcs2KrrrcKsTc-12" value="" style="endArrow=none;startArrow=classic;html=1;curved=1;entryX=0;entryY=1;entryDx=0;entryDy=0;exitX=0;exitY=0.5;exitDx=0;exitDy=0;startFill=1;endFill=0;" parent="1" source="oguf93Jlcs2KrrrcKsTc-7" target="oguf93Jlcs2KrrrcKsTc-4" edge="1">
          <mxGeometry width="50" height="50" relative="1" as="geometry">
            <mxPoint x="280" y="522" as="sourcePoint" />
            <mxPoint x="330" y="472" as="targetPoint" />
            <Array as="points">
              <mxPoint x="100" y="362" />
            </Array>
          </mxGeometry>
        </mxCell>
        <mxCell id="oguf93Jlcs2KrrrcKsTc-13" value="&lt;b&gt;&lt;font face=&quot;Times New Roman&quot; style=&quot;font-size: 19px;&quot;&gt;(b)&lt;/font&gt;&lt;/b&gt;" style="text;html=1;strokeColor=none;fillColor=none;align=center;verticalAlign=middle;whiteSpace=wrap;rounded=0;fontSize=17;" parent="1" vertex="1">
          <mxGeometry x="150" y="160" width="60" height="30" as="geometry" />
        </mxCell>
        <mxCell id="oguf93Jlcs2KrrrcKsTc-14" value="" style="endArrow=none;html=1;rounded=0;exitX=1;exitY=0;exitDx=0;exitDy=0;entryX=0;entryY=1;entryDx=0;entryDy=0;endFill=0;" parent="1" source="oguf93Jlcs2KrrrcKsTc-7" edge="1">
          <mxGeometry width="50" height="50" relative="1" as="geometry">
            <mxPoint x="254" y="398" as="sourcePoint" />
            <mxPoint x="254.02512626584712" y="397.9748737341529" as="targetPoint" />
          </mxGeometry>
        </mxCell>
        <mxCell id="oguf93Jlcs2KrrrcKsTc-22" value="" style="endArrow=none;html=1;rounded=0;exitX=1;exitY=0;exitDx=0;exitDy=0;entryX=0;entryY=1;entryDx=0;entryDy=0;endFill=0;startArrow=classic;startFill=1;" parent="1" source="oguf93Jlcs2KrrrcKsTc-5" target="oguf93Jlcs2KrrrcKsTc-2" edge="1">
          <mxGeometry width="50" height="50" relative="1" as="geometry">
            <mxPoint x="290" y="232" as="sourcePoint" />
            <mxPoint x="210" y="232" as="targetPoint" />
          </mxGeometry>
        </mxCell>
        <mxCell id="oguf93Jlcs2KrrrcKsTc-24" style="edgeStyle=orthogonalEdgeStyle;rounded=0;orthogonalLoop=1;jettySize=auto;html=1;exitX=0.5;exitY=1;exitDx=0;exitDy=0;startArrow=none;startFill=0;endArrow=classic;endFill=1;" parent="1" source="oguf93Jlcs2KrrrcKsTc-27" edge="1">
          <mxGeometry relative="1" as="geometry">
            <mxPoint x="-80" y="312" as="targetPoint" />
          </mxGeometry>
        </mxCell>
        <mxCell id="oguf93Jlcs2KrrrcKsTc-39" value="&lt;font style=&quot;font-size: 13px;&quot;&gt;&lt;b&gt;1.0&lt;/b&gt;&lt;/font&gt;" style="edgeLabel;html=1;align=center;verticalAlign=middle;resizable=0;points=[];" parent="oguf93Jlcs2KrrrcKsTc-24" vertex="1" connectable="0">
          <mxGeometry x="-0.1714" y="-1" relative="1" as="geometry">
            <mxPoint as="offset" />
          </mxGeometry>
        </mxCell>
        <mxCell id="oguf93Jlcs2KrrrcKsTc-25" value="&lt;font face=&quot;Times New Roman&quot; style=&quot;font-size: 16px;&quot;&gt;&lt;b&gt;X&lt;sub&gt;5&lt;/sub&gt;&lt;/b&gt;&lt;/font&gt;" style="ellipse;whiteSpace=wrap;html=1;aspect=fixed;direction=east;" parent="1" vertex="1">
          <mxGeometry x="20" y="202" width="40" height="40" as="geometry" />
        </mxCell>
        <mxCell id="oguf93Jlcs2KrrrcKsTc-26" value="" style="endArrow=classic;html=1;rounded=0;exitX=0.5;exitY=1;exitDx=0;exitDy=0;entryX=0.5;entryY=0;entryDx=0;entryDy=0;" parent="1" source="oguf93Jlcs2KrrrcKsTc-25" target="oguf93Jlcs2KrrrcKsTc-29" edge="1">
          <mxGeometry width="50" height="50" relative="1" as="geometry">
            <mxPoint x="70" y="412" as="sourcePoint" />
            <mxPoint x="120" y="362" as="targetPoint" />
          </mxGeometry>
        </mxCell>
        <mxCell id="oguf93Jlcs2KrrrcKsTc-43" value="&lt;font style=&quot;font-size: 13px;&quot;&gt;&lt;b&gt;1.5&lt;/b&gt;&lt;/font&gt;" style="edgeLabel;html=1;align=center;verticalAlign=middle;resizable=0;points=[];" parent="oguf93Jlcs2KrrrcKsTc-26" vertex="1" connectable="0">
          <mxGeometry x="-0.2286" y="1" relative="1" as="geometry">
            <mxPoint x="-1" as="offset" />
          </mxGeometry>
        </mxCell>
        <mxCell id="oguf93Jlcs2KrrrcKsTc-27" value="&lt;font face=&quot;Times New Roman&quot; style=&quot;font-size: 16px;&quot;&gt;&lt;b&gt;X&lt;sub style=&quot;&quot;&gt;1&lt;/sub&gt;&lt;/b&gt;&lt;/font&gt;" style="ellipse;whiteSpace=wrap;html=1;aspect=fixed;direction=east;" parent="1" vertex="1">
          <mxGeometry x="-100" y="202" width="40" height="40" as="geometry" />
        </mxCell>
        <mxCell id="oguf93Jlcs2KrrrcKsTc-28" value="&lt;font face=&quot;Times New Roman&quot; style=&quot;font-size: 16px;&quot;&gt;&lt;b&gt;X&lt;sub&gt;2&lt;/sub&gt;&lt;/b&gt;&lt;/font&gt;" style="ellipse;whiteSpace=wrap;html=1;aspect=fixed;direction=east;" parent="1" vertex="1">
          <mxGeometry x="-100" y="312" width="40" height="40" as="geometry" />
        </mxCell>
        <mxCell id="oguf93Jlcs2KrrrcKsTc-29" value="&lt;font face=&quot;Times New Roman&quot; style=&quot;font-size: 16px;&quot;&gt;&lt;b&gt;X&lt;sub&gt;4&lt;/sub&gt;&lt;/b&gt;&lt;/font&gt;" style="ellipse;whiteSpace=wrap;html=1;aspect=fixed;direction=east;" parent="1" vertex="1">
          <mxGeometry x="20" y="312" width="40" height="40" as="geometry" />
        </mxCell>
        <mxCell id="oguf93Jlcs2KrrrcKsTc-30" value="&lt;font face=&quot;Times New Roman&quot; style=&quot;font-size: 16px;&quot;&gt;&lt;b&gt;X&lt;sub&gt;3&lt;/sub&gt;&lt;/b&gt;&lt;/font&gt;" style="ellipse;whiteSpace=wrap;html=1;aspect=fixed;direction=east;" parent="1" vertex="1">
          <mxGeometry x="-40" y="392" width="40" height="40" as="geometry" />
        </mxCell>
        <mxCell id="oguf93Jlcs2KrrrcKsTc-31" value="" style="endArrow=none;html=1;rounded=0;exitX=1;exitY=0;exitDx=0;exitDy=0;entryX=0;entryY=1;entryDx=0;entryDy=0;endFill=0;startArrow=classic;startFill=1;" parent="1" source="oguf93Jlcs2KrrrcKsTc-30" target="oguf93Jlcs2KrrrcKsTc-29" edge="1">
          <mxGeometry width="50" height="50" relative="1" as="geometry">
            <mxPoint x="-1.0251262658471205" y="393.0251262658471" as="sourcePoint" />
            <mxPoint x="110" y="362" as="targetPoint" />
          </mxGeometry>
        </mxCell>
        <mxCell id="oguf93Jlcs2KrrrcKsTc-42" value="&lt;font style=&quot;font-size: 13px;&quot;&gt;&lt;b&gt;0.9&lt;/b&gt;&lt;/font&gt;" style="edgeLabel;html=1;align=center;verticalAlign=middle;resizable=0;points=[];" parent="oguf93Jlcs2KrrrcKsTc-31" vertex="1" connectable="0">
          <mxGeometry x="0.3672" y="1" relative="1" as="geometry">
            <mxPoint x="-2" y="7" as="offset" />
          </mxGeometry>
        </mxCell>
        <mxCell id="oguf93Jlcs2KrrrcKsTc-32" value="" style="endArrow=none;html=1;rounded=0;endFill=0;entryX=0;entryY=0;entryDx=0;entryDy=0;exitX=1;exitY=1;exitDx=0;exitDy=0;startArrow=classic;startFill=1;" parent="1" source="oguf93Jlcs2KrrrcKsTc-28" target="oguf93Jlcs2KrrrcKsTc-30" edge="1">
          <mxGeometry width="50" height="50" relative="1" as="geometry">
            <mxPoint x="-70" y="342" as="sourcePoint" />
            <mxPoint x="110" y="362" as="targetPoint" />
          </mxGeometry>
        </mxCell>
        <mxCell id="oguf93Jlcs2KrrrcKsTc-41" value="&lt;font style=&quot;font-size: 13px;&quot;&gt;&lt;b&gt;0.8&lt;/b&gt;&lt;/font&gt;" style="edgeLabel;html=1;align=center;verticalAlign=middle;resizable=0;points=[];" parent="oguf93Jlcs2KrrrcKsTc-32" vertex="1" connectable="0">
          <mxGeometry x="-0.0045" y="4" relative="1" as="geometry">
            <mxPoint x="-3" y="1" as="offset" />
          </mxGeometry>
        </mxCell>
        <mxCell id="oguf93Jlcs2KrrrcKsTc-33" value="&lt;font style=&quot;font-size: 13px;&quot;&gt;&lt;b&gt;0.7&lt;/b&gt;&lt;/font&gt;" style="endArrow=none;html=1;rounded=0;exitX=0;exitY=0.5;exitDx=0;exitDy=0;entryX=1;entryY=0.5;entryDx=0;entryDy=0;endFill=0;startArrow=classic;startFill=1;" parent="1" source="oguf93Jlcs2KrrrcKsTc-29" target="oguf93Jlcs2KrrrcKsTc-28" edge="1">
          <mxGeometry width="50" height="50" relative="1" as="geometry">
            <mxPoint x="70" y="412" as="sourcePoint" />
            <mxPoint x="120" y="362" as="targetPoint" />
          </mxGeometry>
        </mxCell>
        <mxCell id="oguf93Jlcs2KrrrcKsTc-34" value="" style="endArrow=none;html=1;rounded=0;exitX=0;exitY=0.5;exitDx=0;exitDy=0;entryX=1;entryY=0.5;entryDx=0;entryDy=0;endFill=0;startArrow=classic;startFill=1;" parent="1" source="oguf93Jlcs2KrrrcKsTc-25" target="oguf93Jlcs2KrrrcKsTc-27" edge="1">
          <mxGeometry width="50" height="50" relative="1" as="geometry">
            <mxPoint x="50" y="252" as="sourcePoint" />
            <mxPoint x="50" y="322" as="targetPoint" />
          </mxGeometry>
        </mxCell>
        <mxCell id="oguf93Jlcs2KrrrcKsTc-40" value="&lt;font style=&quot;font-size: 13px;&quot;&gt;&lt;b&gt;1.0&lt;/b&gt;&lt;/font&gt;" style="edgeLabel;html=1;align=center;verticalAlign=middle;resizable=0;points=[];" parent="oguf93Jlcs2KrrrcKsTc-34" vertex="1" connectable="0">
          <mxGeometry x="0.15" y="3" relative="1" as="geometry">
            <mxPoint x="2" y="-3" as="offset" />
          </mxGeometry>
        </mxCell>
        <mxCell id="oguf93Jlcs2KrrrcKsTc-36" value="&lt;b&gt;&lt;font face=&quot;Times New Roman&quot; style=&quot;font-size: 19px;&quot;&gt;(a)&lt;/font&gt;&lt;/b&gt;" style="text;html=1;strokeColor=none;fillColor=none;align=center;verticalAlign=middle;whiteSpace=wrap;rounded=0;fontSize=17;" parent="1" vertex="1">
          <mxGeometry x="-110" y="160" width="60" height="30" as="geometry" />
        </mxCell>
        <mxCell id="oguf93Jlcs2KrrrcKsTc-37" value="" style="endArrow=none;html=1;rounded=0;exitX=1;exitY=0;exitDx=0;exitDy=0;entryX=0;entryY=1;entryDx=0;entryDy=0;endFill=0;" parent="1" source="oguf93Jlcs2KrrrcKsTc-30" edge="1">
          <mxGeometry width="50" height="50" relative="1" as="geometry">
            <mxPoint x="-6" y="398" as="sourcePoint" />
            <mxPoint x="-5.9748737341528795" y="397.9748737341529" as="targetPoint" />
          </mxGeometry>
        </mxCell>
      </root>
    </mxGraphModel>
  </diagram>
</mxfile>
